<svg xmlns="http://www.w3.org/2000/svg" width="1200" height="800" viewBox="0 0 1200 800" role="img" aria-labelledby="title desc">
  <title id="title">Dream customs passport illustration</title>
  <desc id="desc">A surreal dream passport with stamps, clouds, and a customs desk.</desc>
  <defs>
    <linearGradient id="sky" x1="0" y1="0" x2="1" y2="1">
      <stop offset="0" stop-color="#f7efe0"/>
      <stop offset="0.46" stop-color="#d8edf0"/>
      <stop offset="1" stop-color="#f6c8a4"/>
    </linearGradient>
    <linearGradient id="ink" x1="0" y1="0" x2="1" y2="1">
      <stop offset="0" stop-color="#103044"/>
      <stop offset="1" stop-color="#32636f"/>
    </linearGradient>
    <filter id="shadow" x="-20%" y="-20%" width="140%" height="140%">
      <feDropShadow dx="0" dy="20" stdDeviation="22" flood-color="#17313a" flood-opacity="0.22"/>
    </filter>
  </defs>
  <rect width="1200" height="800" rx="38" fill="url(#sky)"/>
  <g opacity="0.2" fill="none" stroke="#103044" stroke-width="2">
    <path d="M80 174c120-90 219-65 297 2s174 75 302-12 254-82 445 34"/>
    <path d="M60 602c144-74 276-58 395 20 130 86 256 69 356-3 112-81 210-87 320-28"/>
  </g>
  <g filter="url(#shadow)">
    <rect x="267" y="138" width="666" height="512" rx="28" fill="#fff7e9" stroke="#103044" stroke-width="10"/>
    <rect x="312" y="184" width="576" height="420" rx="20" fill="#fbf4e6" stroke="#d6a267" stroke-width="3"/>
    <rect x="356" y="230" width="214" height="270" rx="16" fill="url(#ink)"/>
    <circle cx="463" cy="328" r="64" fill="#f6c8a4"/>
    <path d="M386 458c28-72 127-72 156 0" fill="#f7efe0"/>
    <path d="M635 244h184M635 292h184M635 340h146M635 388h184" stroke="#103044" stroke-width="12" stroke-linecap="round"/>
    <rect x="622" y="448" width="206" height="72" rx="36" fill="#e85d4f" opacity="0.92"/>
    <path d="M661 484h128" stroke="#fff7e9" stroke-width="11" stroke-linecap="round"/>
  </g>
  <g transform="translate(121 103) rotate(-14)">
    <rect x="0" y="0" width="214" height="96" rx="48" fill="#e85d4f"/>
    <text x="107" y="61" font-family="Georgia, serif" font-size="30" text-anchor="middle" fill="#fff7e9">APPROVED</text>
  </g>
  <g transform="translate(872 568) rotate(10)">
    <circle cx="72" cy="72" r="72" fill="none" stroke="#103044" stroke-width="8"/>
    <circle cx="72" cy="72" r="48" fill="none" stroke="#103044" stroke-width="3" opacity="0.55"/>
    <path d="M36 72h72M72 36v72" stroke="#103044" stroke-width="5" opacity="0.55"/>
  </g>
  <g fill="#fff7e9" stroke="#103044" stroke-width="6">
    <path d="M185 558c42-46 78-42 113-2 31-30 66-30 104 5 12 64-18 98-97 102-87 5-127-31-120-105z"/>
    <path d="M850 114c34-37 64-34 93-2 26-24 54-24 85 4 10 52-15 79-80 83-70 4-103-25-98-85z"/>
  </g>
</svg>
